<?xml version="1.0" encoding="UTF-8" standalone="no"?>
<!-- Generator: Adobe Illustrator 22.0.1, SVG Export Plug-In . SVG Version: 6.00 Build 0)  -->

<svg
   version="1.1"
   id="Layer_1"
   x="0px"
   y="0px"
   viewBox="0 0 1000 329.6662"
   xml:space="preserve"
   sodipodi:docname="S._C._Johnson_-_2018.svg"
   width="1000"
   height="329.6662"
   inkscape:version="1.2.2 (732a01da63, 2022-12-09)"
   xmlns:inkscape="http://www.inkscape.org/namespaces/inkscape"
   xmlns:sodipodi="http://sodipodi.sourceforge.net/DTD/sodipodi-0.dtd"
   xmlns="http://www.w3.org/2000/svg"
   xmlns:svg="http://www.w3.org/2000/svg"><defs
   id="defs103">
	
	
	

		
		
		
		
		
		
		
		
		
	</defs><sodipodi:namedview
   id="namedview101"
   pagecolor="#ffffff"
   bordercolor="#111111"
   borderopacity="1"
   inkscape:showpageshadow="0"
   inkscape:pageopacity="0"
   inkscape:pagecheckerboard="1"
   inkscape:deskcolor="#d1d1d1"
   showgrid="false"
   inkscape:zoom="0.6"
   inkscape:cx="483.33333"
   inkscape:cy="105"
   inkscape:window-width="1366"
   inkscape:window-height="705"
   inkscape:window-x="-8"
   inkscape:window-y="-8"
   inkscape:window-maximized="1"
   inkscape:current-layer="Layer_1"
   showguides="false" />
<style
   type="text/css"
   id="style2">
	.st0{fill:#DE2626;}
</style>
<g
   id="g26283"><g
     id="g26270"><path
       style="display:inline;fill:#000000;fill-opacity:1;fill-rule:evenodd;stroke-width:59.4554;stroke-linecap:round;stroke-linejoin:round;stroke-miterlimit:0;paint-order:stroke fill markers"
       d="M 907.89062,80.847656 V 202.63281 h 34.17383 v -93.96875 c 0,-5.91184 4.76,-10.673826 10.67188,-10.673826 5.91186,0 10.67187,4.761986 10.67187,10.673826 v 79.8418 c 0,7.82366 6.29738,14.12109 14.1211,14.12109 H 1000 v -92.27929 c 0,-16.916782 -9.19047,-29.500004 -27.16992,-29.500004 z"
       id="path26250" /><path
       style="display:inline;fill:#000000;fill-opacity:1;fill-rule:evenodd;stroke-width:59.4554;stroke-linecap:round;stroke-linejoin:round;stroke-miterlimit:0;paint-order:stroke fill markers"
       d="M 570.98633,80.847656 V 202.63281 h 34.17383 v -93.96875 c 0,-5.91184 4.76196,-10.673826 10.67382,-10.673826 5.91188,0 10.66993,4.761986 10.66993,10.673826 v 79.8418 c 0,7.82366 6.29739,14.12109 14.12109,14.12109 h 22.4707 v -92.27929 c 0,-16.916782 -9.19046,-29.500004 -27.16992,-29.500004 z"
       id="path26248" /><path
       id="path26246"
       style="display:inline;fill:#000000;fill-opacity:1;fill-rule:evenodd;stroke-width:59.4554;stroke-linecap:round;stroke-linejoin:round;stroke-miterlimit:0;paint-order:stroke fill markers"
       d="M 722.4668 80.544922 C 695.26355 80.544922 680.66211 91.922229 680.66211 107.60742 L 680.66211 125.17578 C 680.66211 136.04692 690.26608 148.87918 710.17578 149.68555 L 724.20898 150.25391 C 731.20749 150.53729 736.64453 153.30108 736.64453 161.14453 L 736.64453 174.58984 C 736.64453 181.4594 732.75327 185.64648 725.75 185.64648 C 718.74557 185.64648 715.36914 181.4594 715.36914 174.58984 L 715.36914 170.89648 C 715.36914 163.96083 710.97247 157.99022 702.73828 157.99023 L 680.11133 157.99023 L 680.11133 167.67188 C 680.11133 186.67789 693.75231 203.32813 724.62891 203.32812 L 729.55859 203.32812 C 762.44863 203.32812 771.64453 187.42199 771.64453 176.76172 L 771.64453 158.00391 C 771.64453 146.15156 762.45834 133.43956 740.41211 132.87109 L 729.73047 132.5957 C 720.64446 132.36141 715.65625 128.95013 715.65625 121.59375 L 715.65625 108.14844 C 715.65625 101.27889 719.47992 97.035156 726.48438 97.035156 C 734.78733 97.035156 737.1543 100.99441 737.1543 107.37695 L 737.1543 109.86914 C 737.1543 115.28031 741.22455 121.6875 748.86328 121.6875 L 772.85547 121.6875 L 772.85547 116.20117 C 772.85547 94.924295 756.67308 80.544922 728.87891 80.544922 L 722.4668 80.544922 z " /><path
       id="path26244"
       style="display:inline;fill:#000000;fill-opacity:1;fill-rule:evenodd;stroke-width:59.4554;stroke-linecap:round;stroke-linejoin:round;stroke-miterlimit:0;paint-order:stroke fill markers"
       d="m 837.47266,80.160156 c -29.41778,-0.0011 -47.77735,11.746465 -47.77735,32.074224 v 59.01953 c 0,20.32771 18.35957,32.07443 47.77735,32.07421 h 4.35937 c 29.41772,-2e-4 47.77735,-11.7465 47.77735,-32.07421 v -59.01953 c 0,-20.32775 -18.35963,-32.073293 -47.77735,-32.074224 z m 2.20898,15.785156 c 5.96012,0 10.75781,4.797738 10.75781,10.757808 v 68.61329 c 0,5.96007 -4.79769,10.75781 -10.75781,10.75781 -5.96006,0 -10.75781,-4.79774 -10.75781,-10.75781 v -68.61329 c 0,-5.96007 4.79775,-10.757807 10.75781,-10.757808 z" /><path
       id="path26242"
       style="display:inline;fill:#000000;fill-opacity:1;fill-rule:evenodd;stroke-width:59.4554;stroke-linecap:round;stroke-linejoin:round;stroke-miterlimit:0;paint-order:stroke fill markers"
       d="m 388.06445,80.160156 c -29.41778,0 -47.77734,11.746495 -47.77734,32.074224 v 59.01953 c 0,20.3277 18.35956,32.07422 47.77734,32.07421 h 4.35938 c 29.41776,0 47.77734,-11.74651 47.77734,-32.07421 v -59.01953 c 0,-20.327729 -18.35958,-32.074224 -47.77734,-32.074224 z m 2.21094,15.785156 c 5.96006,0 10.75781,4.797748 10.75781,10.757808 v 68.61329 c 0,5.96005 -4.79775,10.75781 -10.75781,10.75781 -5.96007,0 -10.75781,-4.79776 -10.75781,-10.75781 v -68.61329 c 0,-5.96006 4.79774,-10.757807 10.75781,-10.757808 z" /><path
       style="display:inline;fill:#000000;fill-opacity:1;fill-rule:evenodd;stroke-width:59.4554;stroke-linecap:round;stroke-linejoin:round;stroke-miterlimit:0;paint-order:stroke fill markers"
       d="m 456.8418,0 v 202.63672 h 38.25 v -93.96875 c 0,-5.91185 4.76003,-10.671876 10.67187,-10.671876 5.91186,0 10.66992,4.760026 10.66992,10.671876 v 79.8418 c 0,7.82364 6.29934,14.12304 14.12305,14.12304 h 22.4707 v -92.28125 c 0,-16.91675 -9.19242,-29.499997 -27.17187,-29.499998 H 495.89453 V 0 Z"
       id="path26100" /></g><g
     id="g26201"><path
       style="display:inline;fill:#e02626;fill-opacity:1;fill-rule:evenodd;stroke-width:59.4554;stroke-linecap:round;stroke-linejoin:round;stroke-miterlimit:0;paint-order:stroke fill markers"
       d="m 189.05273,50.28125 c -27.75862,0 -57.46484,10.901799 -57.46484,39.835938 v 73.613282 c 0,26.29078 24.72262,39.33984 57.46484,39.33984 h 6.64258 c 35.21123,0 58.40235,-13.88092 58.40235,-40.38672 v -15.29297 h -31.67383 c -10.83116,0 -17.06446,6.69374 -17.06445,17.28711 v 4.45899 c 0,6.93431 -5.58131,12.51758 -12.51563,12.51758 -6.9343,0 -12.51758,-5.58327 -12.51758,-12.51758 V 84.4375 c 0,-6.934325 5.58328,-12.517578 12.51758,-12.517578 6.93432,0 12.51562,5.583253 12.51563,12.517578 v 2.171875 c 0,9.828973 6.83041,14.705075 16.30273,14.705075 h 32.43555 v -9.984372 c 0,-27.338103 -23.01144,-41.048828 -59.17383,-41.048828 z"
       id="path26196" /><path
       style="display:inline;fill:#e02626;fill-opacity:1;fill-rule:evenodd;stroke-width:59.4554;stroke-linecap:round;stroke-linejoin:round;stroke-miterlimit:0;paint-order:stroke fill markers"
       d="m 53.908203,50.28125 c -33.98631,0 -52.2285161,14.164962 -52.2285155,32.154297 v 23.603513 c 0,15.64788 13.1032615,29.54784 37.9746095,30.6211 l 16.429687,0.70898 c 8.742559,0.37726 15.539063,3.80822 15.539063,13.60742 v 16.79688 c 0,8.58243 -4.861746,14.25586 -13.611328,14.25586 -8.750959,0 -13.41211,-5.67343 -13.41211,-14.25586 v -4.61524 c 0,-8.66504 -5.050514,-15.8457 -15.33789,-15.8457 H 0.99023438 v 11.81836 c 0,23.7451 17.04352162,44.54687 55.61914062,44.54687 h 6.158203 c 41.091092,0 52.580082,-19.87106 52.580082,-33.18945 v -23.43555 c 0,-14.80769 -11.48303,-30.35008 -39.019535,-31.28906 L 62.982422,115.30859 C 51.633668,114.9216 45.177734,111.08522 45.177734,101.89453 V 84.4375 c 0,-8.582413 4.999041,-13.886719 13.75,-13.886719 10.373264,0 13.386719,5.277926 13.386719,13.251953 v 3.113282 c 0,6.760419 5.028831,14.654294 14.572266,14.654294 h 29.974611 v -6.744138 c 0,-26.5822 -20.216873,-44.544927 -54.941408,-44.544922 z"
       id="path26194" /><path
       style="display:inline;fill:#e02626;fill-opacity:1;fill-rule:evenodd;stroke-width:59.4554;stroke-linecap:round;stroke-linejoin:round;stroke-miterlimit:0;paint-order:stroke fill markers"
       d="m 271.85547,0 v 230.89648 c 0,41.51674 -38.05871,82.00586 -103.25781,82.00586 -27.39422,0 -77.377008,-10.55204 -97.525394,-44.4375 -2.961499,-4.98063 -5.560254,-13.52872 -6.628907,-18.80468 C 59.888662,227.17363 51.789371,220.14648 40.992188,220.14648 H 0 v 14.38477 c 0,56.03538 61.805706,95.13477 168.59766,95.13477 96.95187,0 153.99023,-39.78252 153.99023,-98.76954 V 0 Z"
       id="path26088" /></g></g>
</svg>
