<?xml version="1.0" encoding="UTF-8" standalone="no"?>
<!-- Created with Inkscape (http://www.inkscape.org/) -->

<svg
   width="120mm"
   height="120mm"
   viewBox="-60 -60 120 120"
   sodipodi:docname="CD-Label_120x120.svg"
   version="1.1"
   id="svg60"
   inkscape:export-filename="bitmap.svg"
   inkscape:export-xdpi="96"
   inkscape:export-ydpi="96"
   xmlns:inkscape="http://www.inkscape.org/namespaces/inkscape"
   xmlns:sodipodi="http://sodipodi.sourceforge.net/DTD/sodipodi-0.dtd"
   xmlns="http://www.w3.org/2000/svg"
   xmlns:svg="http://www.w3.org/2000/svg"
   xmlns:rdf="http://www.w3.org/1999/02/22-rdf-syntax-ns#"
   xmlns:cc="http://creativecommons.org/ns#"
   xmlns:dc="http://purl.org/dc/elements/1.1/">
  <defs
     id="defs62">
    <linearGradient
       id="linearGradient3054"
       inkscape:swatch="solid">
      <stop
         style="stop-color:#c40000;stop-opacity:1;"
         offset="0"
         id="stop3052" />
    </linearGradient>
    <linearGradient
       id="linearGradient3048"
       inkscape:swatch="solid">
      <stop
         style="stop-color:#ebebeb;stop-opacity:1;"
         offset="0"
         id="stop3046" />
    </linearGradient>
  </defs>
  <sodipodi:namedview
     pagecolor="#ffffff"
     bordercolor="#666666"
     borderopacity="1.0"
     inkscape:pageopacity="0.0"
     inkscape:pageshadow="2"
     inkscape:zoom="1"
     inkscape:cx="226.771653543"
     inkscape:cy="226.771653543"
     inkscape:document-units="mm"
     inkscape:current-layer="layer1"
     showgrid="false"
     units="mm"
     showguides="true"
     inkscape:guide-bbox="true"
     inkscape:snap-global="true"
     inkscape:snap-bbox="true"
     inkscape:snap-bbox-midpoints="true"
     inkscape:window-width="850"
     inkscape:window-height="832"
     inkscape:window-x="717"
     inkscape:window-y="28"
     inkscape:window-maximized="0"
     inkscape:bbox-paths="true"
     inkscape:bbox-nodes="true"
     inkscape:snap-bbox-edge-midpoints="true"
     inkscape:snap-grids="true"
     id="namedview50"
     inkscape:showpageshadow="2"
     inkscape:pagecheckerboard="0"
     inkscape:deskcolor="#d1d1d1">
    <sodipodi:guide
       orientation="1,0"
       position="226.77165,226.77165"
       id="guide2827"
       inkscape:locked="false" />
    <sodipodi:guide
       orientation="0,1"
       position="226.77165,226.77165"
       id="guide2829"
       inkscape:locked="false" />
    <inkscape:grid
       type="xygrid"
       id="grid3072"
       empspacing="10"
       visible="true"
       enabled="true"
       snapvisiblegridlinesonly="true"
       units="mm"
       dotted="false"
       spacingx="0.1mm"
       spacingy="0.1mm" />
  </sodipodi:namedview>
  <metadata
     id="metadata2822">
    <rdf:RDF>
      <cc:Work
         rdf:about="">
        <dc:format>image/svg+xml</dc:format>
        <dc:type
           rdf:resource="http://purl.org/dc/dcmitype/StillImage" />
        <dc:title />
      </cc:Work>
    </rdf:RDF>
  </metadata>
  <g
     inkscape:label="Layer 1"
     inkscape:groupmode="layer"
     id="Template"
     style="fill:none;stroke:#000000;stroke-width:0.05">
    <g
       id="path9213"
       transform="matrix(1.505451,0,0,1.4558273,-22.665859,19.230452)">
      <path
         style="color:#000000;fill:#2b0000;fill-opacity:0;stroke:none;stroke-width:2.979;stroke-linecap:round;stroke-miterlimit:7.4;stroke-dasharray:5.958;-inkscape-stroke:none"
         d="m 50.918733,-34.171532 c -8.235393,-1.495112 -16.681474,-3.170071 -25.059371,-1.948709 -4.79816,0.625812 -9.063075,3.673268 -11.315795,7.939259 -0.971333,2.476967 -3.497961,4.939888 -2.81589,7.687994 1.004836,4.939176 3.155462,9.518347 5.679797,13.8447662 2.060411,4.012958 3.4123,8.4165098 4.068907,12.8643529 0.232021,4.4022529 -2.893448,8.3286179 -6.913764,9.8167189 -4.473297,1.816103 -9.4800179,2.105641 -14.23090605,1.48617"
         id="path14474" />
      <path
         style="color:#000000;fill:#ffffff;stroke:none;stroke-linecap:round;stroke-miterlimit:7.4;stroke-dasharray:5.958;-inkscape-stroke:none"
         d="m 33.255859,-38.013672 a 1.4895,1.4895 0 0 0 -1.52539,1.451172 1.4895,1.4895 0 0 0 1.453125,1.525391 c 1.180272,0.02876 2.364987,0.101112 3.550781,0.203125 l 0.777344,0.07031 0.771484,0.08008 0.708984,0.08008 a 1.4895,1.4895 0 0 0 1.646485,-1.3125 1.4895,1.4895 0 0 0 -1.3125,-1.648437 l -0.72461,-0.08008 -0.800781,-0.08398 -0.796875,-0.07227 H 37 c -1.240377,-0.106886 -2.489787,-0.18233 -3.744141,-0.212891 z m -6.138672,0.234375 c -0.582632,0.06008 -1.145734,0.137752 -1.691406,0.214844 l -0.0039,0.002 h -0.0039 c -1.57078,0.230166 -3.09795,0.696433 -4.527344,1.371094 a 1.4895,1.4895 0 0 0 -0.710938,1.984375 1.4895,1.4895 0 0 0 1.982422,0.710937 c 1.168121,-0.551341 2.41764,-0.932781 3.689453,-1.11914 0.540105,-0.0763 1.06362,-0.148725 1.572266,-0.201172 a 1.4895,1.4895 0 0 0 1.328125,-1.634766 1.4895,1.4895 0 0 0 -1.634766,-1.328125 z m 18.183594,1.089844 a 1.4895,1.4895 0 0 0 -1.714844,1.222656 1.4895,1.4895 0 0 0 1.220704,1.714844 c 1.941825,0.327627 3.887102,0.691671 5.845703,1.046875 a 1.4895,1.4895 0 0 0 1.732422,-1.201172 1.4895,1.4895 0 0 0 -1.201172,-1.730469 c -1.949586,-0.353569 -3.907947,-0.719533 -5.882813,-1.052734 z m -28.603515,3.873047 a 1.4895,1.4895 0 0 0 -1.033203,0.482422 c -0.954481,1.042093 -1.776206,2.204788 -2.4375,3.457031 l -0.0332,0.06445 -0.115234,0.277344 -0.09375,0.210937 c -0.18937,0.405639 -0.422377,0.821769 -0.677734,1.259766 a 1.4895,1.4895 0 0 0 0.537109,2.037109 1.4895,1.4895 0 0 0 2.037109,-0.537109 c 0.275034,-0.471748 0.558616,-0.973952 0.814454,-1.525391 l 0.0039,-0.0098 0.117187,-0.261719 0.0625,-0.148438 c 0.538442,-1.014203 1.205035,-1.963755 1.982422,-2.8125 a 1.4895,1.4895 0 0 0 -0.0918,-2.103515 1.4895,1.4895 0 0 0 -1.072265,-0.390625 z m -5.248047,10.53125 a 1.4895,1.4895 0 0 0 -1.259766,1.6875 c 0.06527,0.449483 0.150648,0.700147 0.160156,0.769531 l 0.0078,0.0625 0.121094,0.533203 0.115234,0.478516 0.121094,0.470703 0.002,0.0059 c 0.125017,0.474074 0.25885,0.944589 0.402344,1.41211 0.238096,0.775702 0.501599,1.542122 0.785156,2.298828 a 1.4895,1.4895 0 0 0 1.916016,0.873047 1.4895,1.4895 0 0 0 0.873046,-1.917969 c -0.26334,-0.702757 -0.507276,-1.41267 -0.726562,-2.126953 v -0.002 c -0.131031,-0.427 -0.253473,-0.856424 -0.367188,-1.28711 l -0.002,-0.0098 -0.113281,-0.435547 -0.105469,-0.4375 -0.101562,-0.449219 0.02344,0.126953 c -0.06275,-0.457857 -0.152926,-0.716285 -0.164062,-0.792969 a 1.4895,1.4895 0 0 0 -1.6875,-1.259765 z m 4.74414,11.205078 a 1.4895,1.4895 0 0 0 -1.136718,0.09766 1.4895,1.4895 0 0 0 -0.636719,2.0097657 c 0.529529,1.0203466 1.088748,2.0186241 1.662109,3.0039063 0.368171,0.7172092 0.712542,1.4472656 1.033203,2.1875 a 1.4895,1.4895 0 0 0 1.958985,0.7753906 1.4895,1.4895 0 0 0 0.77539,-1.9589843 C 19.503301,-5.764283 19.130533,-6.5525918 18.732422,-7.328125 l -0.01758,-0.035156 -0.02148,-0.035156 c -0.567998,-0.9740477 -1.114095,-1.9552794 -1.628906,-2.947266 a 1.4895,1.4895 0 0 0 -0.871094,-0.734375 z m 3.861328,10.89062488 A 1.4895,1.4895 0 0 0 19.005859,1.6367187 c 0.420462,1.5556429 0.744321,3.1371072 0.982422,4.7324219 0.0092,0.22121 0.01295,0.4383394 0.002,0.6484375 a 1.4895,1.4895 0 0 0 1.410157,1.5664063 1.4895,1.4895 0 0 0 1.564453,-1.4101563 c 0.01839,-0.3513078 0.01732,-0.6956261 0,-1.0332031 l -0.0039,-0.072266 -0.01172,-0.070312 C 22.693579,4.2667342 22.337914,2.550407 21.880859,0.859375 A 1.4895,1.4895 0 0 0 20.054687,-0.18945312 Z M 20.279297,11.392578 A 1.4895,1.4895 0 0 0 18.1875,11.632813 c -0.746429,0.93984 -1.683415,1.740449 -2.730469,2.341796 -0.445486,0.255521 -0.909322,0.473292 -1.384765,0.650391 a 1.4895,1.4895 0 0 0 -0.875,1.916016 1.4895,1.4895 0 0 0 1.916015,0.876953 c 0.634467,-0.236334 1.244367,-0.525665 1.826172,-0.859375 l 0.002,-0.002 c 1.369943,-0.78679 2.590541,-1.826829 3.578125,-3.070313 a 1.4895,1.4895 0 0 0 -0.240234,-2.09375 z M 8.6503906,16.0625 8.265625,16.11328 7.8417969,16.16406 7.4140625,16.20508 6.9863281,16.24219 6.5566406,16.27149 6.1269531,16.29493 5.6972656,16.31056 5.265625,16.32036 4.8339844,16.32426 C 4.4054614,16.325054 3.9760716,16.31776 3.546875,16.30082 H 3.537105 L 3.1054644,16.27934 2.9921831,16.27344 a 1.4895,1.4895 0 0 0 -1.5761719,1.398438 1.4895,1.4895 0 0 0 1.3984375,1.574219 l 0.1328125,0.0098 0.4667969,0.02148 h 0.00391 c 0.4727811,0.01883 0.9476912,0.02822 1.4218749,0.02734 h 0.00391 l 0.4707031,-0.0039 0.4746094,-0.01172 0.4746094,-0.01758 0.4746093,-0.02539 0.4746094,-0.0332 L 7.6875,19.171875 8.1621094,19.125 8.6367188,19.070312 9.0449219,19.015625 A 1.4895,1.4895 0 0 0 10.324219,17.341797 1.4895,1.4895 0 0 0 8.6503906,16.0625 Z"
         id="path14476" />
    </g>
    <g
       id="g9316"
       style="fill:#1ca5e6;fill-opacity:1"
       transform="matrix(1.505451,0,0,1.4558273,-20.206898,15.547089)">
      <path
         style="fill:#1ca5e6;fill-opacity:1;stroke:#ffffff;stroke-width:1.879;stroke-dasharray:none;stroke-opacity:1"
         d="m 23.829894,-0.02540168 c 0,0 6.29486,17.51467868 17.872162,21.07060368 4.078507,1.252698 4.612257,-0.02135 4.570155,-4.28769 C 44.990956,5.9682333 27.883441,-3.5525726 27.883441,-3.5525726"
         id="path6307"
         sodipodi:nodetypes="cscc"
         inkscape:label="cabo lupa" />
      <path
         id="path4591"
         style="stroke:#ffffff;stroke-width:2.04075"
         d="M 34.293534,-19.499321 A 23.162933,23.162933 0 0 1 11.130601,3.6636124 23.162933,23.162933 0 0 1 -12.032332,-19.499321 23.162933,23.162933 0 0 1 11.130601,-42.662254 23.162933,23.162933 0 0 1 34.293534,-19.499321 Z" />
    </g>
    <g
       id="g15555"
       transform="matrix(1.505451,0,0,1.4558273,-23.872787,9.07833)">
      <path
         style="fill:#1ca5e6;fill-opacity:1;stroke:#ffffff;stroke-width:1.879;stroke-dasharray:none;stroke-opacity:1"
         d="m -3.0713297,23.560669 c 0,0 -10.3921133,-9.647175 -11.0528483,-19.3852353 C -14.181938,-11.433672 7.1528031,-10.819735 7.1531391,4.3709265 6.1043041,14.561067 -3.0713297,23.560669 -3.0713297,23.560669 Z"
         id="path6209"
         sodipodi:nodetypes="cccc" />
      <circle
         style="fill:#1ca5e6;fill-opacity:1;stroke:#ffffff;stroke-width:1.686;stroke-dasharray:none;stroke-opacity:1"
         id="path4591-7"
         cx="-3.1860676"
         cy="4.1396227"
         r="6.6486654" />
    </g>
    <rect
       style="fill:#1ca5e6;fill-opacity:1;stroke:#ffffff;stroke-width:2.23292;stroke-dasharray:none;stroke-opacity:1"
       id="rect335"
       width="34.434841"
       height="33.299778"
       x="-18.693132"
       y="-32.581249"
       ry="3.5922682" />
    <rect
       style="fill:#2b0000;fill-opacity:0;stroke:#ffffff;stroke-width:1.32378;stroke-dasharray:none;stroke-opacity:1"
       id="rect335-6"
       width="5.7416596"
       height="5.5523996"
       x="-4.2435975"
       y="-32.239098"
       ry="0.59897435" />
  </g>
</svg>
