<?xml version="1.0" encoding="UTF-8" standalone="no"?>
<!-- Created with Inkscape (http://www.inkscape.org/) -->

<svg
   width="453.72055"
   height="511.87051"
   viewBox="0 0 453.72055 511.87051"
   version="1.1"
   id="svg5"
   xml:space="preserve"
   xmlns="http://www.w3.org/2000/svg"
   xmlns:svg="http://www.w3.org/2000/svg"><defs
     id="defs2" /><g
     id="layer1"
     transform="translate(-229.35078,-112.4555)"><path
       style="fill:#ffffff"
       d="m 492.57958,623.11525 c -2.0742,-0.77357 -8.0608,-3.96628 -13.3035,-7.09491 l -9.5323,-5.68841 -3.1965,2.42966 c -1.7581,1.33632 -4.7715,3.2539 -6.6965,4.2613 l -3.5,1.83164 -6.5,-0.003 -6.5,-0.003 -4.1937,-2.17182 c -4.6787,-2.42298 -10.9245,-8.41015 -11.8651,-11.37385 l -0.6143,-1.93564 -3.1635,0.72824 c -13.1844,3.03514 -27.3583,-4.18148 -30.8046,-15.68413 l -1.0987,-3.6672 -5.7024,-0.51708 c -10.1914,-0.92412 -19.0578,-7.64918 -22.0539,-16.72757 l -1.3239,-4.0118 -4.59,-0.01 c -21.8999,-0.0466 -31.0413,-24.3035 -16.5821,-44.00089 4.6653,-6.35533 3.5822,-8.63862 -2.5848,-5.4495 -4.6488,2.40396 -11.8148,3.37292 -17.7731,2.40318 l -5.4114,-0.88072 -10.1192,-5.74044 c -12.0643,-6.84355 -16.0545,-10.51025 -17.5724,-16.14754 l -1.1323,-4.20511 0.9283,-3.36208 c 0.7643,-2.76799 47.5822,-82.96682 63.9103,-109.47792 l 4.5397,-7.37102 4.5036,-1.99213 4.5035,-1.99212 4.1,0.48475 4.1,0.48475 11.1388,6.60192 c 15.5527,9.21797 20.0827,15.31675 21.1375,28.45733 l 0.5158,6.42487 5.1039,2.37656 c 3.1181,1.4519 6.9674,2.38037 9.8932,2.38634 l 4.7891,0.01 12.2109,-4.6958 12.2108,-4.6958 9.5,-0.0542 9.5,-0.0542 7.8334,3.74034 7.8335,3.74033 16.1665,-4.08642 16.1666,-4.08643 6,0.47145 6,0.47144 11.6621,4.62465 11.6621,4.62464 5.3379,-0.0153 c 7.20703,-0.0207 7.33348,-0.20059 7.3689,-10.48469 l 0.031,-9 1.77557,-3.30974 c 6.83372,-12.73837 31.04692,-26.52868 40.88088,-23.28318 5.60374,1.8494 7.11765,4.11703 41.33632,61.91615 l 32.75288,55.32324 0.45645,4.75042 0.45646,4.75043 -2.09262,4.10188 -2.09263,4.10188 -10.89314,6.56325 c -6.44587,3.88372 -13.3169,7.18419 -16.82991,8.08418 l -5.93677,1.52093 -5.43775,-1.1051 c -2.99076,-0.6078 -5.89038,-1.13718 -6.4436,-1.17639 -1.49657,-0.10606 -9.68377,5.25793 -9.2585,6.06587 0.20154,0.3829 1.40338,2.89326 2.67076,5.57859 l 2.30432,4.88241 -0.38067,6.73694 -0.38067,6.73694 -3.01061,4.88065 -3.0106,4.88065 -5.23512,3.13961 c -6.07255,3.64183 -12.16898,4.82525 -18.05018,3.50383 l -4.15732,-0.93409 -0.63468,2.64533 c -2.79504,11.64962 -12.9132,19.47959 -25.10088,19.42439 l -6.25,-0.0283 -0.022,2.12462 c -0.13899,13.44565 -20.10089,24.77839 -33.66369,19.11149 -1.9918,-0.83222 -3.6962,-1.39472 -3.7876,-1.25 -0.091,0.14472 -0.6877,2.08348 -1.3252,4.30835 -3.5188,12.28033 -19.6143,20.50501 -31.4728,16.08235 z m 14.3112,-16.16374 c 1.0366,-0.93812 2.3809,-3.20912 2.9873,-5.04667 l 1.1027,-3.34101 -1.612,-3.3969 -1.6119,-3.39691 -8.8988,-5.22333 c -12.1305,-7.12027 -14.3953,-11.11544 -9.2295,-16.28123 3.7173,-3.71735 6.6997,-2.6964 26.4862,9.06684 l 18.764,11.15538 h 3.4702 3.4703 l 3.243,-2.89766 3.243,-2.89767 v -4.02246 -4.02246 l -1.9772,-2.19345 c -1.0875,-1.20639 -10.3023,-7.12946 -20.4773,-13.16237 -25.4025,-15.06155 -30.211,-22.21836 -17,-25.30223 l 2.5,-0.58358 26.5,15.64785 c 14.575,8.60631 27.57732,16.06324 28.89404,16.57095 l 2.39404,0.92311 3.34033,-1.10241 c 16.21704,-5.3521 10.61429,-13.45512 -23.14881,-33.47908 -14.6044,-8.6615 -26.9869,-16.55794 -27.5166,-17.54762 -2.4991,-4.66959 0.955,-10.93092 6.0301,-10.93092 1.6465,0 15.4503,7.58725 36.57574,20.10382 41.91193,24.83234 40.69489,24.35972 46.85823,18.19638 l 2.57293,-2.57293 v -3.84786 -3.84786 l -2.75,-2.97233 c -1.5125,-1.63479 -23.45,-15.18735 -48.75,-30.11681 -25.3,-14.92946 -47.4153,-28.00653 -49.1451,-29.06017 l -3.1451,-1.9157 -3.0364,5.38014 c -5.8226,10.31719 -16.4999,16.65332 -28.063,16.65332 h -5.8146 l -3.3438,-2.2534 c -1.8392,-1.23937 -4.2682,-3.82687 -5.3979,-5.75 l -2.0541,-3.4966 v -21 c 0,-24.05352 0.3011,-26.12666 4.9047,-33.77179 l 3.3773,-5.60854 -3.0402,-1.05984 c -1.6721,-0.58291 -5.1921,-1.05983 -7.8221,-1.05983 h -4.7819 l -12.3189,4.72425 -12.3189,4.72425 -9.5,-0.002 -9.5,-0.002 -5.9037,-2.73513 c -3.2471,-1.50432 -6.1313,-2.50754 -6.4095,-2.22937 -0.2782,0.27817 -10.9614,18.1715 -23.7406,39.76295 l -23.2348,39.25719 1.4941,0.85551 c 0.9171,0.5252 3.6224,0.18606 7.0064,-0.87833 l 5.5123,-1.73385 5.4351,0.56095 c 6.2736,0.64749 13.0543,4.23722 16.6271,8.8024 l 2.4323,3.10788 3.8906,-2.53274 c 14.1012,-9.17956 34.9855,-1.95793 38.0055,13.14202 l 0.5836,2.91827 6.4543,0.51808 6.4542,0.51809 4.6966,2.89677 4.6965,2.89677 3.1396,5.23512 c 3.6178,6.03252 4.8262,12.16474 3.5321,17.92449 l -0.9059,4.03164 4.0175,1.20368 c 2.4949,0.74749 5.9712,3.16109 9.1725,6.36846 l 5.1549,5.16479 1.3319,4.77594 c 1.5374,5.51303 0.9451,14.15172 -1.2587,18.35779 l -1.4803,2.82537 9.6482,5.81796 9.6482,5.81797 3.8276,-0.46277 c 2.1052,-0.25452 4.6758,-1.23032 5.7124,-2.16843 z m -50.737,-5.22571 c 1.0638,-0.95596 3.9058,-4.49527 6.3156,-7.86511 l 4.3814,-6.12699 v -3.48815 c 0,-6.52603 -6.2351,-11.30173 -12.5551,-9.61639 -3.4669,0.9245 -5.6283,3.0676 -10.8125,10.72073 l -3.6324,5.36221 v 3.25293 c 0,8.3468 10.231,13.21711 16.303,7.76077 z m -36.4498,-12.33679 3.1516,-1.09866 11.3414,-15.67514 c 6.2377,-8.62132 11.8616,-16.64734 12.4976,-17.83559 4.7886,-8.94775 -7.1249,-18.57828 -15.1619,-12.25638 -3.3429,2.62954 -24.5252,32.49208 -25.3344,35.7161 -1.7506,6.97484 6.3345,13.64955 13.5057,11.14967 z m -26.5669,-21.91187 c 1.4058,-1.1058 7.7664,-9.26699 14.1348,-18.13598 l 11.5789,-16.12543 v -3.46403 -3.46402 l -3.4,-3.4 c -7.2201,-7.22006 -11.0258,-4.88871 -25.8076,15.80933 l -11.9903,16.7893 -0.096,3.379 c -0.2386,8.41608 9.1978,13.63203 15.5799,8.61183 z m -28.4213,-20.73946 c 1.1476,-0.9625 4.7975,-5.53192 8.1108,-10.15426 l 6.0242,-8.40425 v -3.76882 -3.76882 l -3.0769,-3.07693 -3.077,-3.07692 h -3.4888 c -5.2093,0 -6.6751,1.18482 -13.8178,11.16959 l -6.5395,9.14149 v 3.92139 3.92138 l 2.9231,2.92307 2.923,2.92308 h 3.9662 c 2.3157,0 4.8344,-0.72822 6.0527,-1.75 z m 255.135,-42.23338 c 0,-0.44651 -5.625,-10.28295 -12.5,-21.85875 l -12.5,-21.04692 v -3.05547 c 0,-5.29101 5.16099,-8.46588 10.45782,-6.43329 0.89177,0.3422 7.43573,10.41219 14.54214,22.37774 18.72132,31.5224 20.34573,32.40164 39.33759,21.29204 4.31065,-2.52159 8.03988,-5.11196 8.28716,-5.75638 0.49585,-1.29214 -62.85874,-108.78027 -64.42365,-109.3019 -1.88029,-0.62677 -18.69379,10.3948 -20.95106,13.73382 l -2.25,3.32826 v 4.51415 4.51416 l 5.5,9.39431 c 7.66782,13.09708 7.16027,19.28161 -1.58241,19.28161 h -3.77243 l -1.82258,-2.40151 c -1.00242,-1.32084 -2.57068,-3.76366 -3.48502,-5.42849 l -1.66245,-3.02696 -4.83755,1.50099 -4.83756,1.501 -7.5,-0.41696 -7.5,-0.41695 -11.8352,-4.65556 c -14.2186,-5.59307 -14.8813,-5.61425 -33.0849,-1.05729 -16.2895,4.0778 -19.3562,5.5968 -23.2899,11.53624 l -2.79,4.21259 -0.3267,19.96515 -0.3268,19.96515 4.5704,-0.51514 c 8.4646,-0.95409 14.0467,-7.43736 15.2657,-17.73041 0.6253,-5.27906 2.2686,-7.48992 6.3174,-8.49925 l 2.5,-0.62321 52.3435,30.9785 52.34359,30.97851 4.90645,-3.01898 c 2.69855,-1.66043 4.90646,-3.38429 4.90646,-3.8308 z m -285.7967,-5.16137 c 1.6029,-1.14136 8.195,-11.11597 15.6394,-23.66412 7.0777,-11.93012 19.0636,-32.15164 26.6353,-44.93671 l 13.7667,-23.24559 0.4383,-4.25441 0.4384,-4.25442 -1.8953,-3.5 -1.8953,-3.5 -9.4154,-5.72745 c -5.1785,-3.15009 -9.8654,-5.72483 -10.4154,-5.72163 -0.7438,0.004 -63.6772,105.04403 -65.2853,108.96503 -0.3322,0.81011 17.3258,11.50373 20.2853,12.28466 3.1948,0.84303 8.7009,-0.30745 11.7033,-2.44536 z m -74.027,87.09028 c -11.7739,-2.35929 -22.4146,-10.59222 -27.7457,-21.46734 l -2.9306,-5.97819 v -209 -209 l 2.6352,-5.62001 c 4.9974,-10.65809 14.3694,-18.51352 25.4852,-21.36125 l 6.0538,-1.55092 118.4129,0.26609 118.4129,0.26609 5.0355,2.28086 5.0355,2.28086 40.1788,40.21914 40.17875,40.21914 2.28572,5 2.28573,5 0.28625,67.5 c 0.33363,78.67546 0.69229,75 -7.31872,75 h -3.38962 l -2.03895,-2.18856 -2.03896,-2.18856 v -66.20644 -66.20643 l -27.25,-0.42813 -27.25,-0.42812 -5.7823,-2.26082 c -10.8332,-4.23567 -18.575,-11.9774 -22.8106,-22.81063 l -2.2609,-5.78231 -0.4281,-27.25 -0.4281,-27.25 -116.145,0.01 -116.145,0.01 -5.0409,2.34733 c -5.3903,2.51006 -9.9246,7.13435 -12.1106,12.35101 l -1.3485,3.21782 v 204.33578 204.33577 l 2.6034,5.22431 c 3.0341,6.08874 7.4226,9.77004 14.0104,11.75268 l 4.7041,1.4157 h 41.6667 41.6668 l 2.1743,2.31445 c 2.6834,2.85635 2.7866,6.70752 0.2633,9.82477 l -1.9109,2.36078 -42.3391,0.15596 c -23.2864,0.0858 -44.2847,-0.23392 -46.6627,-0.71043 z m 280.3174,-417.95328 -29.9937,-30.00776 -0.2727,18.67384 -0.2726,18.67384 1.5728,5.4104 1.5728,5.4104 4.37,4.36997 4.37,4.36997 4.8298,1.48389 4.8299,1.4839 19.4938,0.0696 19.4937,0.0697 z m -254.7991,141.89663 c -0.993,-0.57767 -2.2509,-2.22173 -2.7952,-3.65347 l -0.9897,-2.60316 1.1127,-2.6864 c 0.612,-1.47753 2.2285,-3.19478 3.5922,-3.81613 l 2.4795,-1.12972 h 123.8181 123.8181 l 2.6348,2.07258 2.6349,2.07258 v 3.42742 c 0,2.09409 -0.778,4.20546 -2,5.42742 l -2,2 -125.25,-0.0304 -125.25,-0.0304 -1.8054,-1.0503 z m 0.6266,-46.07761 c -1.1984,-0.57936 -2.6812,-2.26616 -3.2952,-3.74845 l -1.1163,-2.69507 0.9973,-2.62308 c 0.5485,-1.44268 1.8892,-3.10043 2.9794,-3.68387 l 1.9821,-1.0608 h 125.0658 125.0657 l 2,2 c 1.222,1.22196 2,3.33333 2,5.42742 v 3.42742 l -2.6349,2.07258 -2.6348,2.07258 -124.1152,-0.0677 -124.1151,-0.0677 z m 0.9871,-51.80937 c -1.2054,-0.49188 -2.9303,-2.02149 -3.8329,-3.39915 l -1.6413,-2.50482 0.7013,-2.29897 c 0.3856,-1.26443 1.3927,-3.08646 2.2379,-4.04896 l 1.5367,-1.75 h 64.7724 64.7724 l 2.0726,2.63486 c 2.6982,3.43019 2.6158,5.62196 -0.3404,9.05938 l -2.4131,2.80576 -62.8369,0.19811 c -35.164,0.11086 -63.8022,-0.19574 -65.0287,-0.69621 z"
       id="path331" /></g></svg>
